<svg width="19" height="26" viewBox="0 0 19 26" fill="none" xmlns="http://www.w3.org/2000/svg">
<path d="M14.4222 0C15.6322 1.01 16.8522 2.01 18.0622 3.02C18.6722 3.52 18.6722 3.57 18.2122 4.22C17.5922 5.09 16.9822 5.97 16.3622 6.84C16.1222 7.18 15.9422 7.22001 15.5722 7.04001C15.3222 6.92001 15.0622 6.79 14.8122 6.67C14.8022 6.67 14.7822 6.67 14.7322 6.67C14.7322 6.97 14.7322 7.28 14.7322 7.58C14.7322 7.69 14.7322 7.8 14.7222 7.91C14.6822 8.13 14.5522 8.27001 14.3222 8.29001C14.0922 8.31001 13.9322 8.2 13.8622 7.98C13.8322 7.87 13.8222 7.75 13.8222 7.63C13.8222 5.5 13.8222 3.37001 13.8222 1.24001V0.930008H12.1322C11.7522 2.43001 10.8022 3.35 9.23221 3.34C7.68221 3.33 6.75221 2.42 6.38222 0.919998H4.71221V13.36C4.88222 13.36 5.04221 13.36 5.21221 13.36C5.89221 13.36 6.58222 13.36 7.26222 13.36C7.37222 13.36 7.48221 13.36 7.58221 13.39C7.79221 13.45 7.90221 13.61 7.89221 13.82C7.89221 14.03 7.77221 14.18 7.56221 14.23C7.47221 14.25 7.38221 14.26 7.29221 14.26C6.33221 14.26 5.37221 14.26 4.41221 14.26C3.93221 14.26 3.79221 14.12 3.79221 13.63C3.79221 11.4 3.79221 9.17 3.79221 6.94V6.62L2.99221 7.02C2.56221 7.23 2.41221 7.19 2.13222 6.8C1.48222 5.87 0.822215 4.95 0.172215 4.02C-0.087785 3.65 -0.0577851 3.46 0.292215 3.17C1.46221 2.19 2.64221 1.21001 3.81221 0.240005C3.91221 0.160005 4.01221 0.0899945 4.11221 0.00999451C7.55221 0.00999451 10.9922 0.00999451 14.4422 0.00999451L14.4222 0ZM2.75221 6.12C3.06221 5.97 3.33221 5.82 3.61221 5.69C3.74221 5.63 3.79221 5.55 3.79221 5.41C3.79221 4.15 3.79221 2.89 3.79221 1.63C3.79221 1.58 3.77221 1.53 3.76221 1.45L1.05221 3.71001L2.76221 6.13L2.75221 6.12ZM17.4722 3.7L14.7322 1.42C14.7322 2.82 14.7322 4.15 14.7322 5.47C14.7322 5.53 14.7822 5.61999 14.8322 5.64999C15.1422 5.80999 15.4522 5.96 15.7722 6.12L17.4822 3.7H17.4722ZM11.1522 0.919998H7.35222C7.43222 1.73 8.36222 2.46 9.26222 2.45C10.1822 2.44 11.0722 1.72 11.1422 0.919998H11.1522Z" fill="#0D5084"/>
<path d="M13.4321 14.5901C13.3621 15.9101 13.2821 17.2201 13.2121 18.5401C13.0921 20.7301 12.9721 22.9301 12.8521 25.1201C12.8321 25.5101 12.6621 25.6601 12.2821 25.6601C11.1921 25.6601 10.1122 25.6601 9.02215 25.6601C8.61215 25.6601 8.45215 25.4901 8.45215 25.0701C8.45215 19.8501 8.45215 14.6301 8.45215 9.41006C8.45215 8.96006 8.60215 8.81006 9.06215 8.81006C11.9821 8.81006 14.8921 8.81006 17.8121 8.81006C18.3321 8.81006 18.4621 8.95007 18.4621 9.46007C18.4621 12.7801 18.4621 16.1101 18.4621 19.4301C18.4621 21.2801 18.4621 23.1201 18.4621 24.9701C18.4621 25.5201 18.3321 25.6501 17.7821 25.6501C16.7421 25.6501 15.7121 25.6501 14.6721 25.6501C14.2221 25.6501 14.0821 25.5101 14.0521 25.0501C13.8921 22.1901 13.7321 19.3301 13.5721 16.4701C13.5421 15.8901 13.5021 15.3201 13.4721 14.7401C13.4721 14.6801 13.4522 14.6301 13.4422 14.5701H13.4221L13.4321 14.5901ZM9.37215 11.6401V24.7401H11.9521C11.9721 24.3201 12.0022 23.9101 12.0222 23.5101C12.1522 21.2501 12.2721 18.9901 12.4021 16.7301C12.4521 15.7501 12.5021 14.7801 12.5621 13.8001C12.5821 13.4201 12.7421 13.2701 13.1321 13.2701C13.3221 13.2701 13.5121 13.2701 13.7121 13.2701C14.1621 13.2701 14.3021 13.3901 14.3321 13.8301C14.4121 15.1601 14.4821 16.5001 14.5621 17.8301C14.6821 20.0601 14.8021 22.2801 14.9321 24.5101C14.9321 24.5901 14.9521 24.6701 14.9721 24.7401H17.5421V11.6301H9.38215L9.37215 11.6401ZM15.2021 9.73006H11.7021V10.7101H15.2021V9.73006ZM10.7722 9.73006H9.37215V10.7101H10.7722V9.73006ZM16.1321 9.73006V10.7201H17.5321V9.73006H16.1321Z" fill="#0D5084"/>
</svg>
