<svg width="27" height="27" viewBox="0 0 27 27" fill="none" xmlns="http://www.w3.org/2000/svg">
<path d="M26.4503 24.1702C26.4103 24.3102 26.3703 24.4502 26.3303 24.5802C26.0003 25.6502 25.0003 26.4102 23.8803 26.4302C23.2903 26.4402 22.6903 26.4302 22.1003 26.4302C16.2503 26.4302 10.3903 26.4502 4.54028 26.4202C2.84028 26.4202 1.45028 25.7202 0.590278 24.1802C0.0902779 23.2902 -0.0597222 22.3102 0.0202778 21.3102C0.110278 20.1702 0.820278 19.4802 1.86028 19.1702C2.41028 19.0002 3.01028 18.9702 3.58028 18.9002C5.52028 18.6602 7.28028 17.9602 8.94028 16.9602C8.94028 16.9602 8.94028 16.9502 8.96028 16.9102C8.84028 16.8302 8.71028 16.7602 8.58028 16.6702C8.35028 16.5102 8.29028 16.2802 8.42028 16.0702C8.55028 15.8602 8.79028 15.7902 9.03028 15.9202C9.25028 16.0402 9.46028 16.1702 9.67028 16.3102C9.79028 16.3902 9.88028 16.3902 9.99028 16.3102C10.2703 16.1002 10.5603 15.9002 10.8703 15.6802C10.7103 15.5802 10.5903 15.5102 10.4703 15.4402C10.1303 15.2402 10.0403 15.0002 10.1903 14.7502C10.3403 14.5102 10.6003 14.4902 10.9303 14.6902C11.1103 14.8002 11.3003 14.9202 11.4803 15.0202C11.5303 15.0502 11.6203 15.0502 11.6803 15.0202C11.7503 14.9902 11.8003 14.9302 11.8603 14.8802C12.0203 14.7502 12.1703 14.6102 12.3503 14.4602C12.1103 14.3202 11.9003 14.1902 11.6903 14.0602C11.4303 13.9002 11.3603 13.6502 11.4903 13.4302C11.6303 13.2002 11.8703 13.1602 12.1403 13.3102C12.4303 13.4802 12.7203 13.6502 13.0303 13.8402L13.6503 13.1302C13.4803 13.0202 13.2603 12.8902 13.0403 12.7602C12.7403 12.5802 12.6603 12.3402 12.8103 12.1002C12.9503 11.8702 13.2003 11.8402 13.4903 12.0002C13.7703 12.1602 14.0503 12.3302 14.3403 12.5102C14.5703 12.2502 14.7903 12.0002 15.0203 11.7502C15.4803 11.2302 16.1203 11.1302 16.7203 11.4702C17.0103 11.6402 17.3003 11.8102 17.5803 11.9902C18.1803 12.3602 18.3903 13.0202 18.1203 13.6702C17.8603 14.3002 17.5903 14.9202 17.3003 15.5902C17.8003 15.6802 18.2703 15.8002 18.7503 15.8402C19.4503 15.8902 20.1603 15.8902 20.8603 15.9002C20.9803 15.9002 21.1303 15.8302 21.2103 15.7502C21.9903 14.9802 22.4903 14.0602 22.7703 13.0002C22.9603 12.2602 23.4203 11.9002 24.1803 11.9002C24.4003 11.9002 24.6303 11.9002 24.8503 11.9302C25.4303 12.0102 25.8803 12.4902 25.9403 13.0802C25.9503 13.2102 25.9503 13.3402 25.9503 13.4702C25.9503 16.2702 25.9503 19.0602 25.9503 21.8602C25.9503 22.0502 25.9803 22.2002 26.1403 22.3302C26.2603 22.4302 26.3103 22.6002 26.4003 22.7402V24.1902L26.4503 24.1702ZM15.1503 12.9802C15.3303 13.0902 15.4703 13.1702 15.6003 13.2602C15.8503 13.4202 15.9203 13.6502 15.8003 13.8702C15.6703 14.1002 15.4203 14.1602 15.1503 14.0102C14.9403 13.8902 14.7403 13.7702 14.5703 13.6702L13.8603 14.3202C14.0103 14.4102 14.1503 14.4902 14.2903 14.5802C14.5303 14.7402 14.6003 14.9802 14.4803 15.2002C14.3503 15.4202 14.1003 15.4802 13.8503 15.3402C13.6703 15.2402 13.5003 15.1202 13.3203 15.0302C13.2603 15.0002 13.1503 14.9902 13.1003 15.0302C12.8803 15.2002 12.6703 15.3902 12.4603 15.5702C12.4803 15.5902 12.4803 15.6002 12.4903 15.6102C12.6403 15.7102 12.8003 15.8002 12.9503 15.9002C13.2203 16.0702 13.3003 16.3002 13.1703 16.5302C13.0303 16.7702 12.7803 16.8202 12.5003 16.6502C12.2303 16.5002 11.9703 16.3402 11.7103 16.1802L10.7103 16.9202C10.8003 16.9802 10.8803 17.0302 10.9603 17.0802C11.0503 17.1302 11.1403 17.1802 11.2203 17.2402C11.4603 17.4002 11.5303 17.6402 11.4003 17.8602C11.2703 18.0702 11.0203 18.1302 10.7703 17.9902C10.5303 17.8602 10.2903 17.7202 10.0603 17.5602C9.93028 17.4702 9.83028 17.4902 9.69028 17.5602C8.93028 17.9702 8.15028 18.3602 7.38028 18.7602C7.32028 18.7902 7.27028 18.8202 7.18028 18.8702C10.1003 18.9202 12.1803 20.2602 13.5303 22.7802C13.6803 22.7402 13.8303 22.7002 13.9803 22.6502C16.5403 21.8402 19.0003 20.7702 21.4303 19.6302C21.5003 19.6002 21.5503 19.5002 21.6003 19.4402C21.5203 19.3802 21.4503 19.3002 21.3703 19.2802C20.5503 19.1102 19.7603 18.8602 19.0103 18.4902C17.9603 17.9702 17.0703 17.2902 16.4703 16.2602C16.3303 16.0202 16.3103 15.8002 16.4303 15.5302C16.7503 14.8302 17.0403 14.1102 17.3403 13.4002C17.4803 13.0802 17.4203 12.9002 17.1303 12.7202C16.8703 12.5602 16.6003 12.4002 16.3303 12.2402C16.1403 12.1302 15.9403 12.1202 15.7803 12.2802C15.5703 12.4902 15.3803 12.7202 15.1603 12.9702L15.1503 12.9802ZM25.5903 22.9202H25.2303C22.2303 22.9202 19.2203 22.9202 16.2203 22.9202C16.0403 22.9202 15.8403 22.9602 15.6703 23.0202C14.0103 23.6202 12.3303 24.1102 10.5603 24.1802C9.05028 24.2402 7.53028 24.2202 6.02028 24.2202C5.76028 24.2202 5.50028 24.1802 5.25028 24.1302C3.82028 23.8502 2.52028 23.2202 1.23028 22.5502C1.14028 22.5102 1.06028 22.4602 0.940278 22.4002C0.970278 22.5702 0.980278 22.6902 1.01028 22.8102C1.39028 24.4502 2.80028 25.5602 4.51028 25.5602C10.9003 25.5602 17.2803 25.5602 23.6703 25.5602C23.7403 25.5602 23.8103 25.5602 23.8803 25.5602C24.6903 25.5202 25.3903 24.9402 25.5203 24.1402C25.5803 23.7502 25.5703 23.3602 25.5903 22.9202ZM12.6003 23.0102C12.5803 22.9502 12.5703 22.9202 12.5503 22.8902C11.4403 20.9502 9.78028 19.8702 7.54028 19.7802C6.53028 19.7402 5.51028 19.7702 4.49028 19.7802C3.96028 19.7802 3.42028 19.7802 2.89028 19.8602C2.48028 19.9202 2.07028 20.0402 1.69028 20.2102C1.29028 20.3802 1.05028 20.7202 0.930278 21.1402C0.890278 21.2902 0.900278 21.3902 1.06028 21.4702C1.90028 21.8802 2.72028 22.3302 3.58028 22.7102C4.47028 23.1002 5.40028 23.3902 6.39028 23.3702C7.45028 23.3502 8.51028 23.3702 9.57028 23.3702C10.5803 23.3702 11.5803 23.2502 12.5903 23.0202L12.6003 23.0102ZM17.9103 16.6302L17.8703 16.7002C18.1903 16.9402 18.5003 17.1902 18.8403 17.4002C19.6803 17.9302 20.6203 18.2102 21.5803 18.4402C21.7703 18.4802 21.9603 18.5602 22.1103 18.6802C22.7103 19.1702 22.5703 20.0802 21.8403 20.4202C20.7503 20.9302 19.6403 21.4002 18.5503 21.9002C18.4703 21.9402 18.3903 21.9702 18.2503 22.0402H25.0903C25.0903 22.0402 25.1203 21.9802 25.1203 21.9602C25.1203 21.2202 25.1203 20.4802 25.1203 19.7402C25.1203 19.6702 25.0403 19.5702 24.9803 19.5202C24.6303 19.2502 24.2803 18.9902 23.9303 18.7302C23.5603 18.4502 23.3803 18.0802 23.3703 17.6202C23.3703 17.4802 23.3703 17.3402 23.3703 17.2102C23.3603 16.9102 23.2203 16.7502 22.9103 16.7402C22.6603 16.7302 22.4103 16.7302 22.1603 16.7402C21.0403 16.8102 19.9303 16.8802 18.8103 16.7502C18.5203 16.7202 18.2203 16.6802 17.9303 16.6402L17.9103 16.6302ZM25.1203 18.5102V13.6502C25.1203 12.8202 25.0703 12.7702 24.2503 12.7802C23.8803 12.7802 23.7603 12.8802 23.6703 13.2302C23.4903 13.9502 23.1903 14.6302 22.7903 15.2502C22.6803 15.4302 22.5503 15.6002 22.4203 15.8002C22.6503 15.8102 22.8603 15.8202 23.0603 15.8402C23.7203 15.9102 24.2103 16.4302 24.2403 17.0902C24.2403 17.2402 24.2203 17.4002 24.2503 17.5502C24.2703 17.6902 24.3103 17.8502 24.4103 17.9402C24.6103 18.1302 24.8503 18.2902 25.1303 18.5002L25.1203 18.5102Z" fill="#0D5084"/>
<path d="M14.4704 0C14.9104 0.09 15.2304 0.37 15.5404 0.68C17.4804 2.63 19.4304 4.58 21.3804 6.52C21.4904 6.63 21.6004 6.69 21.7804 6.69C21.9704 6.69 22.2104 6.76 22.3504 6.88C22.6904 7.18 23.0204 7.5 23.3004 7.86C24.0504 8.84 24.0204 10.24 23.1704 11.14C22.0204 12.36 20.8104 13.53 19.6204 14.71C19.4304 14.9 19.1704 14.89 19.0004 14.71C18.8104 14.53 18.8204 14.27 19.0404 14.05C19.9004 13.18 20.7704 12.32 21.6304 11.46C21.8904 11.2 22.1604 10.94 22.4104 10.67C23.1204 9.93 23.1204 8.88 22.4104 8.15C22.2104 7.95 22.0104 7.75 21.8104 7.54C21.3604 7.99 20.9404 8.41 20.5104 8.84C19.8404 9.51 19.1704 10.18 18.5004 10.85C18.4304 10.92 18.3704 10.99 18.2904 11.04C18.1004 11.16 17.9104 11.15 17.7504 10.99C17.5904 10.83 17.5704 10.64 17.6804 10.45C17.7304 10.36 17.8104 10.29 17.8804 10.22C18.8704 9.23 19.8504 8.25 20.8604 7.24C20.7704 7.14 20.6804 7.06 20.5904 6.97C20.1504 6.53 19.7204 6.09 19.2704 5.66C19.2004 5.59 19.0604 5.55 18.9604 5.56C18.5204 5.61 18.0704 5.68 17.6304 5.74C17.1604 5.8 16.7704 5.65 16.4404 5.32C15.8804 4.76 15.7904 4.76 15.2404 5.32C14.6304 5.96 14.0504 6.64 13.4204 7.26C12.9604 7.72 12.4304 8.11 11.9404 8.59C12.2904 8.54 12.6404 8.51 12.9804 8.44C13.9904 8.23 14.8904 7.78 15.7504 7.22C16.0304 7.04 16.3104 6.93 16.6504 7.01C17.2204 7.14 17.6004 7.71 17.4204 8.26C17.2204 8.89 16.9804 9.51 16.7504 10.13C16.6504 10.38 16.4104 10.48 16.1804 10.38C15.9504 10.28 15.8504 10.06 15.9404 9.8C16.1204 9.28 16.3204 8.77 16.5004 8.25C16.5404 8.14 16.5004 8.02 16.5104 7.9C16.3904 7.93 16.2604 7.94 16.1704 8C15.1204 8.67 14.0104 9.17 12.7704 9.37C12.0304 9.49 11.3004 9.46 10.5704 9.26C10.3304 9.19 10.1904 9.07 10.1004 8.84C9.82039 8.12 9.53039 7.4 9.24039 6.69C9.09039 6.31 8.94039 6.24 8.54039 6.34C8.26039 6.41 7.99039 6.47 7.72039 6.55C7.44039 6.63 7.33039 6.77 7.34039 7.05C7.35039 7.32 7.38039 7.6 7.40039 7.89C7.58039 7.85 7.75039 7.8 7.91039 7.76C8.20039 7.7 8.43039 7.82 8.49039 8.08C8.55039 8.32 8.41039 8.54 8.13039 8.61C7.90039 8.67 7.66039 8.73 7.42039 8.79V9.74C7.60039 9.7 7.76039 9.66 7.93039 9.62C8.21039 9.56 8.43039 9.68 8.50039 9.93C8.57039 10.17 8.43039 10.39 8.16039 10.47C8.01039 10.51 7.86039 10.56 7.71039 10.58C7.46039 10.61 7.33039 10.73 7.35039 11C7.36039 11.19 7.33039 11.39 7.32039 11.63C7.54039 11.58 7.73039 11.54 7.93039 11.5C8.21039 11.44 8.43039 11.56 8.49039 11.81C8.55039 12.06 8.42039 12.27 8.14039 12.35C7.89039 12.42 7.64039 12.49 7.39039 12.54C7.25039 12.57 7.19039 12.62 7.17039 12.77C7.13039 13.11 7.07039 13.45 7.01039 13.82C7.22039 13.77 7.40039 13.72 7.58039 13.68C7.89039 13.62 8.11039 13.74 8.17039 13.99C8.23039 14.25 8.09039 14.45 7.79039 14.54C7.52039 14.61 7.25039 14.66 6.99039 14.75C6.90039 14.78 6.80039 14.88 6.77039 14.97C6.54039 15.68 6.35039 16.4 6.11039 17.11C6.06039 17.26 5.90039 17.42 5.76039 17.47C5.44039 17.59 5.16039 17.24 5.27039 16.88C5.43039 16.35 5.60039 15.83 5.76039 15.31C5.78039 15.23 5.80039 15.15 5.82039 15.04C5.65039 15.08 5.50039 15.11 5.35039 15.14C5.09039 15.18 4.90039 15.06 4.84039 14.83C4.78039 14.59 4.90039 14.38 5.16039 14.3C5.41039 14.23 5.66039 14.18 5.91039 14.1C5.98039 14.08 6.06039 14.01 6.08039 13.94C6.15039 13.59 6.21039 13.23 6.27039 12.83C6.08039 12.87 5.93039 12.91 5.77039 12.95C5.43039 13.03 5.20039 12.91 5.14039 12.64C5.08039 12.38 5.23039 12.18 5.55039 12.1C5.77039 12.04 6.00039 12 6.22039 11.93C6.29039 11.91 6.37039 11.83 6.38039 11.77C6.42039 11.5 6.43039 11.22 6.45039 10.92C6.19039 10.98 5.96039 11.04 5.73039 11.09C5.42039 11.16 5.19039 11.04 5.13039 10.77C5.07039 10.51 5.22039 10.31 5.52039 10.23C5.79039 10.16 6.06039 10.1 6.32039 10.02C6.39039 10 6.48039 9.93 6.49039 9.88C6.51039 9.61 6.49039 9.33 6.49039 9.03C6.24039 9.09 6.01039 9.15 5.77039 9.2C5.42039 9.28 5.20039 9.19 5.13039 8.92C5.05039 8.64 5.21039 8.44 5.57039 8.35C5.87039 8.27 6.17039 8.2 6.49039 8.11C6.47039 7.78 6.45039 7.47 6.43039 7.15C6.40039 6.35 6.76039 5.87 7.53039 5.67C7.81039 5.6 8.10039 5.53 8.38039 5.46C9.10039 5.29 9.71039 5.6 9.99039 6.28C10.2504 6.9 10.4904 7.52 10.7504 8.16C10.8204 8.12 10.8804 8.1 10.9404 8.07C11.9104 7.47 12.7704 6.75 13.5104 5.89C13.5904 5.79 13.6604 5.63 13.6504 5.5C13.6404 4.45 13.3704 3.46 12.8404 2.55C12.4004 1.8 12.4804 1.27 13.0804 0.65C13.3704 0.35 13.6804 0.11 14.0804 0.01H14.4404L14.4704 0ZM14.5304 4.77C14.7004 4.61 14.8304 4.48 14.9604 4.36C15.2404 4.11 15.5804 3.99 15.9604 4.03C16.3504 4.06 16.6504 4.27 16.9204 4.54C17.0504 4.67 17.2304 4.84 17.3904 4.85C17.6904 4.87 18.0004 4.8 18.3704 4.75C17.7504 4.13 17.1804 3.56 16.6104 2.99C15.9704 2.35 15.3304 1.71 14.6904 1.07C14.4704 0.85 14.2404 0.8 14.0504 0.98C13.5004 1.5 13.2604 1.58 13.7304 2.27C13.7504 2.31 13.7704 2.35 13.7904 2.38C14.1804 3.12 14.4104 3.9 14.5304 4.76V4.77Z" fill="#0D5084"/>
<path d="M22.2903 9.37997C22.2003 9.54997 22.1603 9.67997 22.0703 9.75997C21.2803 10.56 20.4903 11.34 19.7003 12.13C19.4803 12.34 19.2203 12.35 19.0403 12.16C18.8503 11.97 18.8703 11.72 19.0903 11.5C19.8703 10.71 20.6603 9.92997 21.4403 9.14997C21.5903 8.99997 21.7703 8.91997 21.9503 9.01997C22.0803 9.09997 22.1703 9.24997 22.2903 9.37997Z" fill="#0D5084"/>
<path d="M22.0504 23.7998C22.7504 23.7998 23.4404 23.7998 24.1404 23.7998C24.4804 23.7998 24.6904 23.9698 24.6804 24.2498C24.6804 24.5098 24.4704 24.6798 24.1404 24.6798C22.7404 24.6798 21.3304 24.6798 19.9304 24.6798C19.5904 24.6798 19.3904 24.5098 19.3904 24.2298C19.3904 23.9598 19.5904 23.7998 19.9204 23.7998C20.6304 23.7998 21.3304 23.7998 22.0404 23.7998H22.0504Z" fill="#0D5084"/>
</svg>
