<svg width="24" height="24" viewBox="0 0 24 24" fill="none" xmlns="http://www.w3.org/2000/svg">
<path d="M17.15 19.59C17.15 19.71 17.15 19.8 17.15 19.89C17.15 20.79 17.15 21.69 17.15 22.59C17.15 22.93 17.04 23.04 16.7 23.04C13.24 23.04 9.77 23.04 6.31 23.04C5.97 23.04 5.87 22.93 5.87 22.59C5.87 21.69 5.87 20.79 5.87 19.89C5.87 19.8 5.87 19.72 5.87 19.6H5.56C4.26 19.6 2.97 19.6 1.67 19.6C0.600001 19.6 0 18.99 0 17.93C0 14.95 0 11.97 0 8.99001C0 7.93001 0.610001 7.32001 1.67 7.32001C2.16 7.32001 2.66 7.32001 3.15 7.32001C3.24 7.32001 3.32 7.32001 3.44 7.32001C3.44 7.19001 3.44 7.1 3.44 7C3.44 5.57 3.44 4.15 3.44 2.72C3.44 2.34 3.54 2.24001 3.91 2.24001C4.55 2.24001 5.19 2.24001 5.86 2.24001C5.86 2.01001 5.86 1.8 5.86 1.58C5.86 1.21 5.86 0.830007 5.86 0.460007C5.86 0.100007 5.97 0 6.32 0C8.53 0 10.74 0 12.95 0C14.18 0 15.41 0 16.64 0C17.06 0 17.15 0.0900043 17.15 0.520004C17.15 1.08 17.15 1.65001 17.15 2.24001C17.75 2.24001 18.32 2.24001 18.89 2.24001C19.55 2.24001 19.57 2.26001 19.57 2.92001V7.29C19.67 7.29 19.75 7.31001 19.84 7.31001C20.37 7.31001 20.89 7.31001 21.42 7.31001C22.38 7.31001 23.01 7.95001 23.01 8.92001C23.01 11.95 23.01 14.98 23.01 18.01C23.01 18.96 22.38 19.6 21.43 19.6C20.1 19.6 18.78 19.6 17.45 19.6C17.36 19.6 17.27 19.6 17.15 19.6V19.59ZM3.43 18.9C3.43 18.78 3.43 18.69 3.43 18.6C3.43 17.48 3.43 16.37 3.43 15.25C3.43 14.87 3.53 14.77 3.9 14.77C8.97 14.77 14.03 14.77 19.1 14.77C19.47 14.77 19.57 14.87 19.57 15.24C19.57 16.37 19.57 17.49 19.57 18.62V18.87C19.57 18.87 19.62 18.9 19.64 18.9C20.21 18.9 20.79 18.9 21.36 18.9C22.02 18.9 22.33 18.59 22.33 17.94C22.33 14.94 22.33 11.95 22.33 8.95C22.33 8.3 22.01 7.97 21.37 7.97C14.79 7.97 8.21 7.97 1.63 7.97C0.980001 7.97 0.67 8.29 0.67 8.94C0.67 11.26 0.67 13.57 0.67 15.89C0.67 16.61 0.67 17.33 0.67 18.05C0.67 18.48 0.950001 18.86 1.34 18.87C2.02 18.9 2.71 18.87 3.43 18.87V18.9ZM16.46 0.700005H6.56V7.29H16.47V0.700005H16.46ZM6.55 22.34H16.46V15.47H6.55V22.34ZM4.13 2.93V7.3H5.84V2.93H4.13ZM17.17 2.93V7.3H18.88V2.93H17.17ZM4.13 15.47V18.91H5.84V15.47H4.13ZM17.16 18.9H18.88V15.48H17.16V18.9Z" fill="#0D5084"/>
<path d="M4.49004 10.3202C3.75004 10.3202 3.00004 10.3202 2.26004 10.3202C2.18004 10.3202 2.10004 10.3202 2.02004 10.3102C1.84004 10.2802 1.73004 10.1502 1.76004 9.99018C1.78004 9.87018 1.90004 9.75018 2.00004 9.67018C2.06004 9.62018 2.17004 9.64018 2.26004 9.64018C3.76004 9.64018 5.25004 9.64018 6.75004 9.64018C6.81004 9.64018 6.88004 9.64018 6.94004 9.64018C7.13004 9.67018 7.25004 9.78018 7.24004 9.98018C7.24004 10.1802 7.12004 10.2902 6.92004 10.3002C6.77004 10.3002 6.61004 10.3002 6.46004 10.3002C5.81004 10.3002 5.15004 10.3002 4.50004 10.3002L4.49004 10.3202Z" fill="#0D5084"/>
<path d="M15.7401 10.9001C15.2201 10.9001 14.8101 10.5001 14.8101 9.99006C14.8101 9.48006 15.2201 9.06006 15.7301 9.06006C16.2301 9.06006 16.6401 9.47005 16.6501 9.97005C16.6501 10.4801 16.2501 10.9001 15.7401 10.9001ZM15.4501 9.94006V10.0501C15.5501 10.1101 15.6601 10.2101 15.7501 10.2001C15.8301 10.2001 15.9601 10.0501 15.9601 9.97005C15.9601 9.89005 15.8201 9.76005 15.7401 9.75005C15.6501 9.75005 15.5501 9.86005 15.4601 9.93005L15.4501 9.94006Z" fill="#0D5084"/>
<path d="M20.3501 10.9001C19.8301 10.9001 19.4201 10.4901 19.4301 9.98006C19.4301 9.47006 19.8501 9.06006 20.3601 9.06006C20.8601 9.06006 21.2701 9.48005 21.2701 9.97005C21.2701 10.4801 20.8601 10.9001 20.3501 10.9001ZM20.6201 10.0401V9.93005C20.5301 9.87005 20.4301 9.75006 20.3401 9.76006C20.2601 9.76006 20.1401 9.89006 20.1201 9.98006C20.0901 10.1201 20.2101 10.2401 20.3601 10.2101C20.4601 10.1901 20.5401 10.1001 20.6301 10.0401H20.6201Z" fill="#0D5084"/>
<path d="M18.0301 10.9002C17.5101 10.9002 17.1101 10.4902 17.1201 9.97023C17.1201 9.46023 17.5501 9.05024 18.0601 9.06024C18.5601 9.06024 18.9601 9.48024 18.9601 9.98024C18.9601 10.5002 18.5501 10.9002 18.0401 10.9002H18.0301ZM18.1001 9.71024H17.9901C17.9301 9.80024 17.8301 9.87023 17.8101 9.97023C17.7801 10.1202 17.8801 10.2402 18.0301 10.2102C18.1201 10.1902 18.2501 10.0802 18.2501 10.0002C18.2501 9.91023 18.1501 9.81024 18.0901 9.71024H18.1001Z" fill="#0D5084"/>
<path d="M15.9901 3.30019C15.9901 3.61019 15.9901 3.9302 15.9901 4.2402C15.9901 4.4902 15.8601 4.62019 15.6501 4.62019C15.4501 4.62019 15.3101 4.48019 15.3101 4.23019C15.3101 3.60019 15.3101 2.97019 15.3101 2.34019C15.3101 2.10019 15.4601 1.9502 15.6501 1.9502C15.8501 1.9502 15.9801 2.10019 15.9801 2.34019C15.9801 2.65019 15.9801 2.9702 15.9801 3.2802L15.9901 3.30019Z" fill="#0D5084"/>
<path d="M11.5199 17.1098C10.5999 17.1098 9.67991 17.1098 8.75991 17.1098C8.68991 17.1098 8.60991 17.1098 8.53991 17.1098C8.35991 17.0698 8.24991 16.9598 8.25991 16.7698C8.25991 16.5898 8.36991 16.4898 8.53991 16.4498C8.60991 16.4298 8.67991 16.4498 8.75991 16.4498C10.5999 16.4498 12.4299 16.4498 14.2699 16.4498C14.3199 16.4498 14.3699 16.4498 14.4199 16.4498C14.6399 16.4598 14.7899 16.6098 14.7699 16.7998C14.7499 17.0098 14.6299 17.1198 14.4199 17.1298C14.1999 17.1298 13.9799 17.1298 13.7699 17.1298C13.0299 17.1298 12.2799 17.1298 11.5399 17.1298L11.5199 17.1098Z" fill="#0D5084"/>
<path d="M11.51 18.1799C12.42 18.1799 13.34 18.1799 14.25 18.1799C14.31 18.1799 14.38 18.1799 14.44 18.1799C14.63 18.2099 14.75 18.3199 14.75 18.5199C14.75 18.7199 14.63 18.8399 14.43 18.8499C14.29 18.8599 14.14 18.8499 13.99 18.8499C12.25 18.8499 10.51 18.8499 8.78 18.8499C8.71 18.8499 8.63 18.8499 8.56 18.8499C8.37 18.8199 8.25 18.7099 8.25 18.5099C8.25 18.3099 8.37 18.1999 8.57 18.1699C8.63 18.1699 8.7 18.1699 8.76 18.1699C9.67 18.1699 10.59 18.1699 11.5 18.1699L11.51 18.1799Z" fill="#0D5084"/>
<path d="M11.4801 20.6101C10.5501 20.6101 9.62007 20.6101 8.69007 20.6101C8.57007 20.6101 8.41007 20.5501 8.33007 20.4701C8.27007 20.4001 8.25007 20.2301 8.30007 20.1401C8.35007 20.0501 8.49007 19.9601 8.60007 19.9401C8.87007 19.9101 9.15007 19.9401 9.42007 19.9401C11.0101 19.9401 12.6101 19.9401 14.2001 19.9401C14.2601 19.9401 14.3301 19.9401 14.3901 19.9401C14.6101 19.9501 14.7601 20.0901 14.7501 20.2801C14.7501 20.4701 14.6001 20.6101 14.3801 20.6201C13.8901 20.6201 13.3901 20.6201 12.9001 20.6201C12.4201 20.6201 11.9501 20.6201 11.4701 20.6201L11.4801 20.6101Z" fill="#0D5084"/>
</svg>
