<svg width="24" height="24" viewBox="0 0 24 24" fill="none" xmlns="http://www.w3.org/2000/svg">
<path d="M17.3073 18.8902C17.3073 18.1502 17.3073 17.4102 17.3073 16.6802C17.3073 16.4402 17.2473 16.2602 17.0673 16.0902C16.3073 15.3502 15.5673 14.5902 14.8173 13.8502C14.5273 13.5702 14.3173 13.2502 14.2873 12.8002C14.1073 13.0402 13.9473 13.2502 13.7773 13.4602C12.7273 14.7702 11.4573 15.8102 9.97731 16.5902C9.82731 16.6702 9.76731 16.7502 9.76731 16.9302C9.77731 17.5702 9.76731 18.2102 9.76731 18.8302C10.4473 18.9402 11.1073 19.0102 11.7573 19.1502C12.1573 19.2302 12.5473 19.3802 12.9273 19.5502C13.3373 19.7302 13.5673 20.0502 13.5373 20.5402C13.5073 20.9202 13.5173 21.3102 13.5373 21.6902C13.5573 22.0502 13.3873 22.3002 13.1073 22.4902C12.6473 22.8002 12.1273 22.9402 11.5873 23.0302C9.24731 23.4402 6.90731 23.4502 4.58731 22.9402C4.20731 22.8602 3.84731 22.6902 3.49731 22.5202C3.14731 22.3502 2.97731 22.0502 2.99731 21.6402C3.01731 21.2402 3.01731 20.8402 2.99731 20.4402C2.97731 20.0802 3.14731 19.8302 3.43731 19.6402C3.91731 19.3302 4.44731 19.1902 4.99731 19.0902C5.57731 18.9902 6.15731 18.9202 6.76731 18.8302C6.76731 18.1602 6.76731 17.4702 6.76731 16.7802C6.76731 16.7202 6.66731 16.6302 6.59731 16.6002C4.45731 15.4702 2.80731 13.8502 1.61731 11.7502C0.867312 10.4202 0.427312 8.98016 0.187312 7.48016C0.137312 7.17016 0.0773114 6.86016 0.0173114 6.56016C-0.0326886 6.28016 0.0173117 6.16016 0.277312 6.03016C0.867312 5.74016 1.44731 5.43016 1.94731 4.99016C2.87731 4.17016 3.52731 3.18016 3.79731 1.96016C3.89731 1.52016 4.18731 1.22016 4.53731 0.960158C5.14731 0.520158 5.84731 0.290159 6.57731 0.160159C7.95731 -0.0898413 9.33731 -0.059841 10.6973 0.340159C11.2373 0.500159 11.7573 0.73016 12.1873 1.11016C12.5073 1.39016 12.6873 1.73016 12.7873 2.14016C13.0473 3.19016 13.6173 4.06016 14.3873 4.80016C14.9073 5.30016 15.5173 5.66016 16.1673 5.97016C16.5573 6.16016 16.5873 6.22016 16.5073 6.65016C16.2773 7.98016 16.0573 9.31016 15.5073 10.5502C15.3873 10.8202 15.2673 11.0902 15.1473 11.3502L15.2073 11.4102C15.2573 11.3402 15.2873 11.2602 15.3473 11.2002C16.1573 10.3802 16.9773 9.57016 17.7873 8.75016C18.4173 8.12016 19.1773 8.12016 19.8173 8.75016C20.8273 9.76016 21.8373 10.7702 22.8473 11.7802C23.4773 12.4102 23.4773 13.1502 22.8473 13.7802C22.0473 14.5802 21.2373 15.3802 20.4373 16.2002C20.3573 16.2802 20.3073 16.4102 20.3073 16.5202C20.2973 17.3002 20.3073 18.0902 20.3073 18.8702C20.7173 18.9602 21.1373 19.0102 21.5173 19.1402C21.8873 19.2702 22.2473 19.4502 22.5873 19.6502C22.8373 19.8002 22.9473 20.0702 22.9373 20.3802C22.9373 20.8002 22.9173 21.2102 22.9373 21.6302C22.9673 22.1002 22.7373 22.4002 22.3573 22.6302C21.8673 22.9202 21.3373 23.0602 20.7873 23.1502C19.2173 23.4102 17.6473 23.4002 16.1073 22.9802C15.7673 22.8902 15.4373 22.7302 15.1273 22.5502C14.7973 22.3602 14.6373 22.0602 14.6573 21.6702C14.6773 21.2802 14.6773 20.8902 14.6573 20.5002C14.6273 20.0102 14.8673 19.7002 15.2573 19.4702C15.7873 19.1702 16.3673 19.0502 16.9573 18.9502C17.0673 18.9302 17.1673 18.9102 17.2973 18.8902H17.3073ZM10.0573 9.80016C10.2573 10.6402 10.1573 11.4102 9.62731 12.0902C9.02731 12.8702 8.02731 13.0102 7.27731 12.4402C6.80731 12.0802 6.51731 11.5902 6.44731 11.0202C6.39731 10.6202 6.44731 10.2002 6.44731 9.78016L5.42731 9.34016C4.90731 9.84016 4.34731 9.94016 3.88731 9.58016C3.69731 9.44016 3.54731 9.21016 3.44731 8.99016C3.29731 8.63016 3.41731 8.27016 3.57731 8.02016L2.13731 5.84016C1.75731 6.06016 1.32731 6.31016 0.887311 6.56016C0.887311 6.56016 0.867311 6.56016 0.867311 6.57016C0.847311 6.63016 0.817311 6.69016 0.827311 6.75016C0.887311 7.13016 0.957311 7.51016 1.03731 7.88016C1.86731 11.9502 4.19731 14.8002 8.02731 16.4302C8.20731 16.5102 8.35731 16.5002 8.53731 16.4302C10.2773 15.7302 11.7573 14.6702 12.9873 13.2502C14.6173 11.3702 15.4073 9.13016 15.7373 6.70016C15.7373 6.66016 15.7073 6.58016 15.6673 6.56016C15.2373 6.31016 14.8073 6.06016 14.3573 5.81016C14.0173 6.60016 13.5373 7.32016 12.9373 7.95016C13.2973 8.59016 13.2173 9.18016 12.7473 9.55016C12.2573 9.93016 11.6973 9.86016 11.1273 9.34016L10.0673 9.80016H10.0573ZM4.16731 3.26016C4.16731 3.26016 4.13731 3.30016 4.12731 3.33016C3.80731 4.00016 3.39731 4.61016 2.88731 5.15016C2.83731 5.20016 2.82731 5.34016 2.85731 5.41016C3.14731 6.16016 3.58731 6.82016 4.14731 7.41016C4.20731 7.48016 4.32731 7.52016 4.42731 7.52016C5.02731 7.52016 5.45731 7.84016 5.60731 8.42016C5.62731 8.50016 5.68731 8.60016 5.75731 8.63016C6.05731 8.78016 6.36731 8.92016 6.67731 9.04016C6.73731 9.06016 6.85731 9.02016 6.90731 8.97016C7.68731 8.04016 8.86731 8.04016 9.63731 8.97016C9.71731 9.07016 9.78731 9.08016 9.89731 9.03016C10.1873 8.90016 10.4873 8.78016 10.7773 8.63016C10.8573 8.59016 10.9173 8.49016 10.9473 8.41016C11.1073 7.83016 11.5373 7.50016 12.1273 7.51016C12.2173 7.51016 12.3273 7.47016 12.3873 7.41016C12.9673 6.82016 13.4073 6.14016 13.7073 5.38016C13.7373 5.31016 13.7073 5.19016 13.6573 5.12016C13.4473 4.84016 13.1973 4.59016 12.9973 4.30016C12.7673 3.97016 12.5773 3.61016 12.3673 3.25016C11.8473 3.76016 11.2073 4.06016 10.5073 4.22016C9.99731 4.34016 9.47731 4.44016 8.95731 4.47016C7.24731 4.56016 5.58731 4.41016 4.17731 3.26016H4.16731ZM18.8173 8.98016C18.6773 9.05016 18.5273 9.09016 18.4373 9.19016C17.3573 10.2602 16.2873 11.3302 15.2073 12.4102C14.9773 12.6402 14.9773 12.9402 15.2073 13.1702C16.2673 14.2402 17.3373 15.3102 18.4173 16.3802C18.6573 16.6102 18.9573 16.6202 19.1973 16.3802C20.2673 15.3202 21.3373 14.2502 22.4073 13.1702C22.6473 12.9302 22.6373 12.6402 22.4073 12.4002C21.3473 11.3302 20.2873 10.2702 19.2173 9.21016C19.1173 9.11016 18.9673 9.06016 18.8273 8.98016H18.8173ZM8.36731 0.750159C7.56731 0.750159 6.85731 0.830158 6.16731 1.03016C5.67731 1.17016 5.20731 1.36016 4.81731 1.71016C4.41731 2.07016 4.40731 2.46016 4.82731 2.80016C5.07731 3.00016 5.35731 3.18016 5.64731 3.29016C7.36731 3.93016 9.10731 3.93016 10.8373 3.32016C11.1773 3.20016 11.4973 2.99016 11.7773 2.76016C12.1473 2.45016 12.1373 2.09016 11.7773 1.76016C11.5873 1.59016 11.3673 1.44016 11.1373 1.33016C10.2373 0.890157 9.26731 0.780157 8.37731 0.760157L8.36731 0.750159ZM6.74731 19.6102C5.74731 19.7202 4.72731 19.7902 3.80731 20.3102C3.94731 20.4102 4.08731 20.5002 4.22731 20.5402C4.58731 20.6402 4.94731 20.7502 5.31731 20.8202C6.97731 21.1102 8.65731 21.1402 10.3273 20.9502C10.9973 20.8702 11.6573 20.6902 12.3273 20.5402C12.4773 20.5102 12.6173 20.4102 12.8173 20.3102C11.8173 19.7902 10.8073 19.7202 9.80731 19.6102C9.37731 20.5402 7.21731 20.5702 6.74731 19.6102ZM3.76731 21.2402C3.76731 21.3102 3.78731 21.4202 3.76731 21.5202C3.71731 21.7902 3.85731 21.9202 4.07731 21.9902C4.41731 22.1002 4.75731 22.2202 5.11731 22.2902C7.07731 22.6602 9.05731 22.6702 11.0273 22.3702C11.5473 22.2902 12.0573 22.1102 12.5573 21.9602C12.6473 21.9302 12.7673 21.8202 12.7873 21.7302C12.8273 21.5602 12.7973 21.3802 12.7973 21.2402C9.77731 22.0302 6.78731 22.0202 3.76731 21.2402ZM15.4073 20.3202C15.6973 20.5902 16.0373 20.6902 16.3673 20.7802C17.5973 21.1002 18.8473 21.1502 20.0973 20.9902C20.6673 20.9202 21.2273 20.7402 21.7773 20.5902C21.9273 20.5502 22.0673 20.4302 22.2573 20.3102C22.0873 20.2002 21.9773 20.1102 21.8573 20.0702C21.4373 19.9402 21.0073 19.8202 20.5773 19.7002C20.4073 19.6502 20.3073 19.7002 20.1673 19.8302C19.9573 20.0202 19.6773 20.1702 19.3973 20.2502C19.1273 20.3302 18.8273 20.3102 18.5373 20.3002C18.1573 20.3002 17.7673 20.2002 17.5373 19.9102C17.2973 19.6202 17.0573 19.6902 16.7873 19.7402C16.6973 19.7602 16.5973 19.7702 16.5073 19.8002C16.1273 19.9102 15.7373 20.0002 15.3973 20.3102L15.4073 20.3202ZM7.14731 10.5302C7.15731 10.9602 7.26731 11.3602 7.55731 11.6802C7.97731 12.1502 8.56731 12.1602 8.98731 11.7002C9.54731 11.0902 9.54731 9.95016 8.96731 9.35016C8.55731 8.92016 7.98731 8.92016 7.57731 9.35016C7.26731 9.68016 7.15731 10.0902 7.13731 10.5302H7.14731ZM15.4373 21.2802C15.4273 21.9202 15.2973 21.8702 15.9973 22.1702C16.0773 22.2002 16.1573 22.2302 16.2373 22.2502C17.7173 22.6602 19.2273 22.6702 20.7273 22.4002C21.1573 22.3202 21.5673 22.1502 21.9673 22.0002C22.0573 21.9702 22.1573 21.8502 22.1773 21.7502C22.2173 21.6002 22.1773 21.4302 22.1773 21.2802C19.9173 22.0102 17.6773 22.0202 15.4173 21.2802H15.4373ZM7.52731 17.0102C7.52731 17.8202 7.52731 18.5602 7.52731 19.3002C7.52731 19.3602 7.63731 19.4702 7.69731 19.4802C8.06731 19.5002 8.43731 19.5102 8.80731 19.5002C8.97731 19.5002 9.04731 19.3702 9.02731 19.1802C9.00731 18.9802 9.02731 18.7702 9.02731 18.5702C9.02731 18.0702 9.02731 17.5702 9.02731 17.0102C8.51731 17.3602 8.02731 17.3502 7.52731 17.0102ZM19.5673 17.0602C19.0473 17.3902 18.5673 17.3602 18.0673 17.0802C18.0673 17.8302 18.0673 18.5402 18.0673 19.2502C18.0673 19.3302 18.1473 19.4402 18.2173 19.4702C18.6073 19.6202 19.0173 19.6202 19.4073 19.4702C19.4773 19.4502 19.5573 19.3402 19.5573 19.2702C19.5673 18.5502 19.5573 17.8302 19.5573 17.0602H19.5673ZM4.52731 9.03016C4.72731 9.03016 4.89731 8.86016 4.89731 8.66016C4.89731 8.46016 4.73731 8.29016 4.52731 8.28016C4.31731 8.28016 4.13731 8.45016 4.14731 8.66016C4.14731 8.86016 4.32731 9.03016 4.52731 9.03016ZM12.0573 8.28016C11.8573 8.28016 11.6873 8.44016 11.6773 8.64016C11.6773 8.84016 11.8373 9.02016 12.0373 9.03016C12.2473 9.03016 12.4273 8.87016 12.4273 8.65016C12.4273 8.45016 12.2573 8.28016 12.0573 8.28016Z" fill="#0D5084"/>
<path d="M17.3073 10.9202H18.0573C18.0573 11.2602 18.0473 11.6002 18.0573 11.9302C18.0573 12.0302 18.1173 12.1502 18.1973 12.2102C18.4973 12.4502 18.6873 12.7502 18.7973 13.1802C18.8473 13.0402 18.8673 12.9402 18.9173 12.8602C19.0773 12.6402 19.2273 12.4102 19.4173 12.2202C19.5173 12.1202 19.5673 12.0402 19.5673 11.9102C19.5673 11.5802 19.5673 11.2502 19.5673 10.9102H20.3173C20.3173 11.2602 20.3173 11.6002 20.3173 11.9502C20.3173 12.0302 20.3773 12.1402 20.4373 12.2002C21.1473 12.7602 21.2873 13.8702 20.7373 14.6102C20.2973 15.1902 19.5773 15.2002 19.1473 14.6102C18.9973 14.4002 18.9073 14.1402 18.7873 13.9002C18.7673 13.9702 18.7373 14.0502 18.7173 14.1302C18.5473 14.6902 18.1373 15.0402 17.6873 15.0502C17.2173 15.0502 16.8173 14.6902 16.6373 14.1202C16.3973 13.3402 16.5873 12.7002 17.2073 12.1902C17.2573 12.1502 17.2973 12.0502 17.2973 11.9802C17.2973 11.6402 17.2973 11.2902 17.2973 10.9302L17.3073 10.9202ZM17.2573 13.5502C17.3373 13.7702 17.3973 13.9802 17.4973 14.1702C17.5973 14.3502 17.7373 14.3402 17.8773 14.1702C18.1273 13.8702 18.1273 13.2002 17.8773 12.9102C17.7473 12.7502 17.6073 12.7402 17.4973 12.9302C17.3973 13.1202 17.3373 13.3302 17.2573 13.5502ZM20.3673 13.5502C20.2873 13.3402 20.2373 13.1102 20.1273 12.9202C20.0273 12.7402 19.8873 12.7502 19.7473 12.9102C19.4973 13.2102 19.4973 13.8702 19.7473 14.1702C19.8773 14.3302 20.0173 14.3402 20.1273 14.1502C20.2273 13.9702 20.2773 13.7702 20.3673 13.5402V13.5502Z" fill="#0D5084"/>
</svg>
