<svg width="25" height="26" viewBox="0 0 25 26" fill="none" xmlns="http://www.w3.org/2000/svg">
<path d="M6.98206 8.43268C6.94206 7.32268 6.85206 6.24267 6.87206 5.17267C6.94206 2.23267 9.65206 -0.197334 12.5921 0.0126657C15.6621 0.232666 17.8421 2.68267 17.7321 5.76267C17.7021 6.64267 17.6421 7.51269 17.5921 8.41269C17.6821 8.41269 17.7521 8.42267 17.8221 8.42267C18.6521 8.40267 19.4721 8.39268 20.3021 8.37268C21.4121 8.34268 22.2321 8.96268 22.4321 10.0627C23.0421 13.4127 23.6421 16.7627 24.2421 20.1127C24.3821 20.8927 24.5421 21.6727 24.6421 22.4527C24.8321 23.9627 23.6821 24.9627 22.5021 24.9627C21.2921 24.9627 20.0721 24.9827 18.8621 24.9827C13.3421 24.9927 7.82206 25.0027 2.31206 25.0127C0.992064 25.0127 0.0520636 24.1627 0.0020636 22.8527C-0.0179364 22.3927 0.112064 21.9327 0.192064 21.4727C0.682064 18.5727 1.18206 15.6727 1.67206 12.7727C1.83206 11.8527 1.99206 10.9227 2.16206 10.0027C2.34206 9.03269 3.26206 8.33267 4.28206 8.36267C5.10206 8.38267 5.92206 8.40269 6.73206 8.41269C6.81206 8.41269 6.90206 8.41269 6.99206 8.41269L6.98206 8.43268ZM7.00206 8.80267C6.91206 8.80267 6.83206 8.80267 6.76206 8.80267C5.93206 8.82267 5.11206 8.84266 4.28206 8.85266C3.58206 8.85266 2.81206 9.27267 2.68206 10.2327C2.40206 12.2627 2.11206 14.2927 1.81206 16.3127C1.50206 18.3427 1.18206 20.3727 0.842064 22.4027C0.692064 23.3127 1.27206 24.0627 2.19206 24.0627C2.52206 24.0627 2.84206 24.0627 3.17206 24.0627C8.96206 24.0627 14.7621 24.0627 20.5521 24.0627C21.2621 24.0627 21.9821 24.0927 22.6921 24.0427C23.4521 23.9927 23.8721 23.3427 23.6821 22.6127C23.6521 22.5027 23.6321 22.3927 23.6121 22.2827C23.3821 20.7027 23.1521 19.1127 22.9221 17.5327C22.5721 15.1027 22.1921 12.6827 21.8721 10.2527C21.7621 9.38269 21.0221 8.79267 20.2721 8.80267C19.5421 8.80267 18.8121 8.77267 18.0821 8.76267C17.9121 8.76267 17.7421 8.76267 17.5521 8.76267L17.3721 11.7227H17.3121L17.1321 8.74268L12.9021 8.62268V8.57266L17.1621 8.47269C17.0721 7.30269 17.0621 6.15268 16.8921 5.02268C16.4221 1.91268 12.9921 0.172682 10.2021 1.62268C8.60206 2.45268 7.78206 3.82266 7.64206 5.60266C7.57206 6.51266 7.54206 7.42267 7.49206 8.33267C7.49206 8.38267 7.49206 8.43269 7.50206 8.47269L11.6621 8.57266V8.62268L7.38206 8.76267L7.23206 11.3127H7.16206L7.02206 8.80267H7.00206Z" fill="#0D5084"/>
<path d="M17.402 11.9327C18.002 11.8727 18.452 12.0627 18.802 12.4927C19.272 13.0727 19.302 13.9127 18.892 14.5227C18.422 15.2227 17.662 15.5027 16.892 15.2827C15.542 14.8927 15.162 13.4627 15.812 12.5727C16.102 12.1727 16.492 11.9527 16.992 11.9227C17.072 11.9227 17.152 11.9327 17.272 11.9427C16.472 12.3827 16.182 12.8827 16.342 13.5227C16.452 13.9527 16.872 14.2827 17.332 14.2927C17.782 14.2927 18.192 13.9927 18.322 13.5627C18.512 12.9227 18.252 12.4427 17.412 11.9427L17.402 11.9327Z" fill="#0D5084"/>
<path d="M7.23216 11.9927C7.81216 11.8627 8.28216 12.0527 8.63216 12.5127C9.09216 13.1027 9.12216 13.9427 8.70216 14.5427C8.22216 15.2427 7.47216 15.5027 6.70216 15.2927C5.39216 14.9327 5.02216 13.4427 5.73216 12.5627C6.08216 12.1327 6.53216 11.9327 7.16216 11.9827C7.03216 12.0527 6.96216 12.0927 6.89216 12.1227C6.48216 12.3527 6.22216 12.6827 6.18216 13.1627C6.13216 13.8027 6.59216 14.3327 7.20216 14.3327C7.82216 14.3327 8.29216 13.7827 8.23216 13.1327C8.18216 12.6327 7.90216 12.3027 7.46216 12.0827C7.42216 12.0627 7.38216 12.0527 7.34216 12.0327C7.30216 12.0127 7.27216 12.0027 7.23216 11.9827V11.9927Z" fill="#0D5084"/>
</svg>
