<svg width="37" height="16" viewBox="0 0 37 16" fill="none" xmlns="http://www.w3.org/2000/svg">
<path d="M0 7.83014C0.16 7.61014 0.32 7.39013 0.47 7.17013C0.53 7.07013 0.57 6.94013 0.58 6.82013C0.58 6.11013 0.58 5.40013 0.58 4.70013C0.58 3.88013 0.96 3.50013 1.78 3.37013C2.96 3.19013 4.17 3.08014 5.31 2.72014C6.75 2.27014 8.12 1.63013 9.51 1.04013C11.17 0.330127 12.89 0.000133894 14.69 0.000133894C16.37 0.000133894 18.05 0.0101339 19.73 0.000133894C21.34 -0.00986611 22.7 0.540131 23.82 1.70013C24.86 2.78013 25.93 3.83014 27.01 4.88014C27.14 5.00014 27.35 5.10014 27.53 5.10014C29.21 5.16014 30.89 5.17013 32.57 5.25013C33.84 5.32013 35.02 5.68014 35.99 6.58014C36.58 7.12014 36.87 7.80014 36.88 8.60014C36.89 9.55014 36.88 10.5001 36.88 11.4401C36.88 12.4701 36.19 13.1801 35.15 13.2201C34.73 13.2401 34.31 13.2101 33.89 13.2301C33.75 13.2301 33.57 13.3301 33.5 13.4401C31.84 16.2201 28.13 16.2201 26.48 13.4401C26.35 13.2201 26.19 13.2301 26 13.2301C22.05 13.2301 18.1 13.2301 14.15 13.2301C13.99 13.2301 13.84 13.2301 13.69 13.2001C13.41 13.1301 13.26 12.9301 13.28 12.6501C13.3 12.3701 13.47 12.1901 13.77 12.1701C13.89 12.1701 14.01 12.1701 14.13 12.1701C17.93 12.1701 21.74 12.1701 25.54 12.1701H25.95C25.98 11.7001 25.97 11.2601 26.04 10.8501C26.57 7.94014 29.88 6.60013 32.3 8.29013C32.51 8.44013 32.8 8.49014 33.12 8.60014C33.12 7.72014 33.43 7.12014 34.15 6.77014V6.66014C33.59 6.56014 33.02 6.39013 32.45 6.37013C29.56 6.27013 26.67 6.22013 23.78 6.15013C19.57 6.05013 15.36 5.97013 11.15 5.86013C10.05 5.83013 9.24 5.27013 8.73 4.31013C8.48 3.85013 8.26 3.37013 7.99 2.84013C6.01 3.94013 3.86 4.28013 1.65 4.57013C3.11 4.81013 3.92 5.60013 3.99 7.11013C4.12 7.12013 4.26 7.14013 4.4 7.15013C10.35 7.40013 16.29 7.65013 22.24 7.90013C23.07 7.93013 23.89 7.98014 24.72 8.02014C25.11 8.04014 25.35 8.26014 25.33 8.58014C25.31 8.90014 25.06 9.11014 24.67 9.10014C22.28 9.00014 19.9 8.89013 17.51 8.79013C15.32 8.70013 13.12 8.61014 10.93 8.52014C10.87 8.52014 10.82 8.52013 10.7 8.53013C10.8 8.65013 10.88 8.74013 10.95 8.82013C12.08 10.0401 12.36 11.7601 11.68 13.2301C10.99 14.7101 9.47 15.6501 7.9 15.5701C6.22 15.4801 4.81 14.4401 4.26 12.8601C4.19 12.6501 4.08 12.5501 3.88 12.5001C3.15 12.3001 2.43 12.0601 1.7 11.8901C0.88 11.6501 0.28 11.2301 0 10.4201V7.83014ZM25.54 5.06013L25.59 4.96014C25.42 4.80014 25.24 4.64014 25.07 4.47014C24.42 3.82014 23.73 3.20013 23.12 2.51013C21.67 0.860129 19.76 1.04014 17.85 1.10014V4.89013L25.55 5.06013H25.54ZM27.07 11.5201C27.07 13.1401 28.39 14.4501 30 14.4401C31.59 14.4301 32.9 13.1201 32.91 11.5301C32.91 9.92013 31.61 8.60014 29.99 8.60014C28.37 8.60014 27.07 9.90014 27.07 11.5201ZM10.96 11.5201C10.96 9.90014 9.67 8.59013 8.05 8.59013C6.45 8.59013 5.14 9.88013 5.12 11.4801C5.11 13.0901 6.41 14.4201 8.02 14.4401C9.63 14.4601 10.95 13.1401 10.96 11.5301V11.5201ZM12.04 4.79013H16.71V1.08014C15.99 1.08014 15.3 1.05014 14.61 1.08014C13.85 1.12014 13.08 1.20013 12.32 1.29013C12.22 1.30013 12.05 1.44014 12.05 1.52014C12.03 2.58014 12.04 3.65013 12.04 4.79013ZM1.08 8.04013C1.08 8.76013 1.08 9.43014 1.08 10.1001C1.08 10.3801 1.24 10.5701 1.51 10.6501C2.33 10.8901 3.16 11.1301 4.02 11.3701C4.12 10.0901 4.66 9.07013 5.72 8.23013L1.07 8.03013L1.08 8.04013ZM33.94 12.1201C34.4 12.1201 34.82 12.1401 35.23 12.1201C35.51 12.1101 35.74 11.9301 35.75 11.6601C35.78 11.0201 35.76 10.3801 35.76 9.73013L33.49 9.60014C33.88 10.4201 34.05 11.2201 33.93 12.1301L33.94 12.1201ZM8.99 2.41014C9.54 3.29014 9.68 4.44013 10.94 4.70013V1.62013L8.99 2.41014ZM34.23 8.54013L35.77 8.63014C35.77 8.02014 35.51 7.50014 35.25 7.52014C34.53 7.58014 34.19 7.89013 34.23 8.54013ZM2.86 7.03013C2.9 6.24013 2.43 5.73014 1.68 5.72014V6.96014L2.86 7.03013Z" fill="#0D5084"/>
<path d="M30.0199 9.82023C30.9599 9.84023 31.6999 10.6202 31.6799 11.5502C31.6499 12.4802 30.8599 13.2402 29.9399 13.2002C28.9999 13.1702 28.2799 12.4102 28.2899 11.4602C28.2999 10.5302 29.0699 9.80023 30.0199 9.82023ZM29.9699 10.9002C29.6199 10.9002 29.3599 11.1702 29.3699 11.5202C29.3699 11.8402 29.6399 12.1102 29.9599 12.1202C30.2899 12.1202 30.5799 11.8402 30.5899 11.5102C30.5899 11.1702 30.3099 10.9002 29.9699 10.9002Z" fill="#0D5084"/>
<path d="M9.73009 11.4903C9.73009 12.4303 8.99009 13.1903 8.05009 13.2003C7.13009 13.2003 6.35009 12.4403 6.34009 11.5203C6.34009 10.5903 7.09009 9.83031 8.02009 9.82031C8.96009 9.82031 9.72009 10.5503 9.72009 11.4903H9.73009ZM8.65009 11.4903C8.65009 11.1403 8.38009 10.8803 8.03009 10.8903C7.70009 10.8903 7.44009 11.1603 7.43009 11.4803C7.43009 11.8103 7.71009 12.1003 8.04009 12.1003C8.38009 12.1003 8.65009 11.8203 8.65009 11.4803V11.4903Z" fill="#0D5084"/>
</svg>
