<svg width="27" height="23" viewBox="0 0 27 23" fill="none" xmlns="http://www.w3.org/2000/svg">
<path d="M0 6.57001C0.11 6.47001 0.21 6.31002 0.35 6.27002C0.62 6.19002 0.8 6.41002 0.78 6.74002C0.76 7.35002 1.06 7.78999 1.59 7.92999C1.69 7.95999 1.79 7.96002 1.9 7.96002C4.34 7.96002 6.77 7.96002 9.21 7.96002C9.7 7.96002 10.09 7.69001 10.25 7.26001C10.41 6.84001 10.32 6.35 9.96 6.09C9.76 5.94 9.48 5.81002 9.24 5.80002C6.78 5.78002 4.32 5.79001 1.85 5.79001C1.75 5.79001 1.65 5.82002 1.54 5.83002C1.3 5.86002 1.11 5.74 1.07 5.53C1.03 5.32 1.15 5.12002 1.39 5.08002C1.67 5.03002 1.95 5.02002 2.26 4.99002C2.23 4.46002 2.28 3.95001 2.69 3.54001C3.09 3.13001 3.6 3.05002 4.17 3.08002C4.17 2.82002 4.17 2.59002 4.17 2.36002C4.17 1.85002 4.5 1.52001 5.01 1.51001C5.36 1.51001 5.72 1.51001 6.07 1.51001C6.59 1.51001 6.91 1.85 6.92 2.38C6.92 2.6 6.92 2.82001 6.92 3.04001C8.53 3.31001 8.67 3.45 8.85 5C9.08 5.02 9.33 5.01 9.56 5.06C10.51 5.23 11.17 6.09 11.09 7.03C11.01 8 10.22 8.73 9.25 8.75C8.5 8.76 7.75 8.75 7 8.75C6.98 8.75 6.97 8.75002 6.93 8.77002V15.45H7.21C7.81 15.45 8.42 15.43 9.02 15.45C9.37 15.47 9.71 15.57 10.05 15.63C10.14 15.64 10.25 15.63 10.33 15.58C10.87 15.27 11.41 14.93 11.95 14.62C12.11 14.53 12.15 14.42 12.15 14.25C12.15 11.65 12.15 9.05001 12.15 6.45001C12.15 5.64001 12.4 5.37 13.2 5.28C13.78 5.22 14.22 4.73 14.25 4.12C14.25 3.94 14.25 3.76002 14.25 3.58002C14.26 3.36002 14.38 3.23002 14.6 3.21002C14.82 3.19002 14.96 3.31002 15.01 3.52002C15.25 4.55002 14.65 5.65 13.66 5.97C13.51 6.02 13.34 6.05 13.18 6.06C12.98 6.06 12.91 6.15001 12.92 6.35001C12.92 6.77001 12.92 7.19 12.92 7.62C12.92 7.75999 12.97 7.83001 13.1 7.89001C15.12 8.85001 17.13 9.82 19.15 10.78C19.23 10.82 19.37 10.82 19.45 10.78C21.47 9.82 23.48 8.85001 25.5 7.89001C25.63 7.83001 25.68 7.75999 25.67 7.62C25.66 7.19 25.67 6.76002 25.67 6.33002C25.67 6.16002 25.61 6.09001 25.44 6.07001C24.29 5.95001 23.59 5.18 23.58 4.03C23.58 3.05 23.58 2.07 23.58 1.09C23.58 0.759996 23.57 0.75 23.25 0.75C23.01 0.75 22.77 0.77 22.53 0.75C22.26 0.73 22.19 0.839996 22.2 1.09C22.22 1.66 22.21 2.23001 22.2 2.79001C22.17 4.26001 21.18 5.42 19.74 5.69C18.15 5.98 16.51 4.71001 16.42 3.10001C16.38 2.43001 16.41 1.76 16.4 1.09C16.4 0.769996 16.39 0.76001 16.06 0.76001C15.78 0.76001 15.51 0.76001 15.23 0.76001C15.08 0.76001 15.01 0.820011 15.01 0.980011C15.01 1.32001 15.01 1.65002 15.01 1.99002C15.01 2.28002 14.85 2.47002 14.61 2.46002C14.38 2.46002 14.24 2.28 14.24 2C14.24 1.64 14.24 1.28001 14.24 0.920013C14.24 0.390013 14.63 0.01 15.16 0C15.5 0 15.85 0 16.19 0C16.78 0 17.16 0.370001 17.17 0.970001C17.18 1.65 17.16 2.33001 17.19 3.01001C17.23 3.92001 17.9 4.7 18.78 4.91C20.13 5.23 21.39 4.24001 21.42 2.82001C21.43 2.21001 21.42 1.60002 21.42 0.990021C21.42 0.380021 21.79 0.01 22.4 0C22.72 0 23.04 0 23.36 0C23.97 0 24.34 0.360011 24.35 0.980011C24.35 1.97001 24.35 2.96001 24.35 3.95001C24.35 4.07001 24.35 4.19 24.37 4.31C24.43 4.85 24.87 5.31001 25.41 5.32001C26.02 5.34001 26.45 5.71001 26.45 6.45001C26.43 9.80001 26.45 13.15 26.45 16.5C26.45 17.74 25.85 18.37 24.61 18.45C24.59 18.45 24.58 18.46 24.53 18.48C24.53 18.93 24.53 19.4 24.53 19.86C24.53 20.14 24.53 20.43 24.53 20.71C24.53 21.59 23.89 22.22 23.01 22.22C20.89 22.22 18.77 22.22 16.66 22.22C14.26 22.22 11.86 22.2 9.45 22.22C8.46 22.22 7.62 21.98 6.92 21.13C6.92 21.41 6.92 21.62 6.92 21.82C6.92 22.38 6.6 22.7 6.04 22.7C5.71 22.7 5.39 22.7 5.06 22.7C4.5 22.7 4.18 22.38 4.18 21.82C4.18 21.61 4.18 21.39 4.18 21.13C3.63 21.16 3.12 21.1 2.72 20.69C2.32 20.28 2.24 19.78 2.29 19.19C2.12 19.19 1.98 19.19 1.84 19.19C0.98 19.16 0.3 18.62 0.0700002 17.79C0.0600002 17.74 0.0299998 17.7 0.00999975 17.65V17.03C0.00999975 17.03 0.04 17 0.04 16.99C0.34 15.94 0.96 15.47 2.05 15.47C2.67 15.47 3.29 15.47 3.91 15.47C4 15.47 4.09 15.47 4.17 15.46V8.77002C3.37 8.77002 2.6 8.77002 1.83 8.77002C1.05 8.76002 0.37 8.25001 0.12 7.51001C0.0899999 7.41001 0.05 7.32 0.02 7.22C0.02 7.01 0.02 6.81001 0.02 6.60001L0 6.57001ZM12.95 8.67001V14.02C13.46 13.72 13.94 13.44 14.41 13.14C14.74 12.93 15.1 12.83 15.49 12.84C15.66 12.84 15.83 12.85 16.01 12.84C16.71 12.8 17.16 13.1 17.43 13.76C17.84 14.76 18.9 15.33 19.97 15.16C20.86 15.01 21.47 14.51 21.81 13.68C21.96 13.31 22.17 13 22.57 12.9C23.85 12.6 24.58 13.49 24.55 14.37C24.52 15.36 24.55 16.35 24.55 17.34C24.55 17.43 24.55 17.52 24.55 17.61C25.26 17.67 25.69 17.28 25.69 16.6C25.69 14.03 25.69 11.47 25.69 8.89999C25.69 8.82999 25.68 8.76001 25.67 8.67001C25.59 8.71001 25.53 8.73 25.48 8.75C23.55 9.68 21.62 10.6 19.69 11.53C19.43 11.65 19.22 11.67 18.96 11.53C17.79 10.95 16.61 10.39 15.43 9.83002C14.62 9.44002 13.81 9.04999 12.96 8.64999L12.95 8.67001ZM15.75 13.62C15.8 14.08 15.73 14.48 15.47 14.84C15.44 14.87 15.49 14.98 15.53 15.04C15.75 15.37 15.98 15.69 16.21 16.02C16.33 16.19 16.37 16.36 16.22 16.54C16.05 16.75 15.76 16.72 15.59 16.48C15.32 16.11 15.07 15.74 14.79 15.34L14.14 15.73C14.92 16.85 15.69 17.96 16.46 19.05C16.49 19.09 16.55 19.15 16.6 19.15C16.87 19.15 17.14 19.15 17.46 19.15C17.14 18.68 16.84 18.27 16.56 17.85C16.49 17.74 16.43 17.57 16.46 17.45C16.49 17.34 16.65 17.2 16.76 17.19C16.89 17.18 17.07 17.26 17.15 17.37C17.54 17.89 17.9 18.42 18.26 18.95C18.36 19.1 18.47 19.16 18.66 19.16C20.27 19.16 21.88 19.16 23.49 19.16C23.58 19.16 23.67 19.16 23.77 19.15V18.84C23.77 17.41 23.77 15.98 23.77 14.55C23.77 14.46 23.77 14.36 23.77 14.27C23.75 13.93 23.54 13.7 23.2 13.64C22.79 13.57 22.68 13.64 22.52 14.03C21.93 15.46 20.39 16.25 18.89 15.89C17.85 15.64 17.12 15.01 16.7 14.02C16.58 13.74 16.41 13.61 16.11 13.63C16.01 13.63 15.91 13.63 15.76 13.63L15.75 13.62ZM7.24 19.95C7.26 20.03 7.27 20.1 7.29 20.16C7.57 20.93 8.29 21.41 9.18 21.41C13.75 21.41 18.32 21.41 22.89 21.41C22.97 21.41 23.05 21.41 23.12 21.41C23.44 21.38 23.71 21.14 23.74 20.82C23.77 20.54 23.74 20.26 23.74 19.96H7.24V19.95ZM9.18 16.29L9.16 16.23H8.88C6.79 16.23 4.7 16.23 2.61 16.23C2.33 16.23 2.06 16.23 1.78 16.23C1.34 16.25 0.96 16.56 0.82 16.98C0.59 17.7 1.11 18.39 1.9 18.4C2.98 18.4 4.05 18.4 5.13 18.4C5.43 18.4 5.61 18.54 5.61 18.78C5.61 19.01 5.43 19.17 5.13 19.17C4.53 19.17 3.92 19.17 3.32 19.17C3.23 19.17 3.14 19.17 3.03 19.17C3.03 19.27 3.03 19.32 3.03 19.38C3.03 20.07 3.28 20.33 3.98 20.33C4.53 20.33 5.08 20.33 5.63 20.33H6.48C6.48 20.27 6.48 20.23 6.48 20.2C6.13 18.95 6.72 17.68 7.82 17.08C8.28 16.83 8.72 16.54 9.17 16.28L9.18 16.29ZM4.97 8.77002V15.44H6.14V8.77002H4.97ZM7.21 19.15H11.84C11.54 18.72 11.26 18.33 11 17.93C10.89 17.77 10.8 17.69 10.59 17.76C10.43 17.81 10.23 17.79 10.06 17.76C9.69 17.71 9.43 17.47 9.2 17.18C8.42 17.71 7.42 18 7.22 19.14L7.21 19.15ZM8.03 5.03C8.15 4.21 7.86 3.87 7.05 3.87C6.02 3.87 4.98 3.87 3.95 3.87C3.24 3.87 2.9 4.33 3.08 5.03H8.03ZM9.89 16.78C10.14 17.07 10.36 17.1 10.69 16.9C12 16.12 13.32 15.33 14.63 14.54C14.96 14.34 15.04 14.16 14.96 13.74L9.9 16.77L9.89 16.78ZM15.58 19.17L13.46 16.14L12.83 16.53C13.43 17.4 14.02 18.24 14.62 19.08C14.65 19.12 14.71 19.17 14.76 19.17C15.01 19.17 15.27 19.17 15.58 19.17ZM13.73 19.17L12.16 16.92L11.51 17.31C11.93 17.91 12.33 18.49 12.74 19.07C12.77 19.11 12.83 19.16 12.88 19.16C13.14 19.16 13.4 19.16 13.73 19.16V19.17ZM6.13 21.9V21.14H4.97V21.9H6.13ZM4.97 2.31V3.06H6.12V2.31H4.97Z" fill="#0D5084"/>
<path d="M18.71 8.86983V7.57985C18.65 7.56985 18.59 7.55984 18.54 7.53984C18.35 7.47984 18.25 7.34984 18.26 7.15984C18.26 6.96984 18.38 6.82985 18.57 6.79985C19.1 6.70985 19.52 6.90984 19.5 7.50984C19.49 7.95984 19.5 8.41983 19.5 8.86983C19.58 8.89983 19.67 8.89985 19.7 8.94985C19.79 9.06985 19.91 9.20983 19.92 9.33983C19.93 9.51983 19.78 9.65985 19.59 9.66985C19.27 9.67985 18.95 9.67985 18.64 9.66985C18.45 9.66985 18.3 9.51983 18.31 9.33983C18.32 9.19983 18.44 9.06985 18.53 8.94985C18.56 8.90985 18.64 8.90984 18.71 8.87984V8.86983Z" fill="#0D5084"/>
</svg>
