<svg width="40" height="40" viewBox="0 0 40 40" fill="none" xmlns="http://www.w3.org/2000/svg">
<path d="M37.3714 5.59817C37.2996 5.08244 36.9285 4.65821 36.4269 4.51878L20.3502 0.0478431C20.121 -0.0159477 19.8789 -0.0159477 19.6496 0.0478431L3.57288 4.51878C3.07127 4.65821 2.7002 5.08227 2.62839 5.59817C2.53515 6.26867 0.407913 22.1111 5.86412 29.9922C11.3139 37.864 19.3534 39.8812 19.693 39.9633C19.7939 39.9877 19.8967 39.9997 19.9999 39.9997C20.1031 39.9997 20.2059 39.9875 20.3068 39.9633C20.6465 39.8812 28.6861 37.864 34.1357 29.9922C39.5919 22.1113 37.4646 6.26885 37.3714 5.59817ZM30.3673 14.8471L19.4014 25.8131C19.1462 26.0682 18.8116 26.196 18.4771 26.196C18.1426 26.196 17.808 26.0684 17.5528 25.8131L10.7727 19.0329C10.5275 18.7879 10.3898 18.4553 10.3898 18.1087C10.3898 17.762 10.5277 17.4295 10.7727 17.1844L12.1189 15.8382C12.6294 15.3278 13.4572 15.3277 13.9675 15.8382L18.4771 20.3478L27.1725 11.6522C27.4176 11.407 27.7501 11.2693 28.0968 11.2693C28.4435 11.2693 28.776 11.407 29.0211 11.6522L30.3673 12.9984C30.8778 13.5089 30.8778 14.3366 30.3673 14.8471Z" fill="#2DC57C"/>
</svg>
