<svg width="14" height="27" viewBox="0 0 14 27" fill="none" xmlns="http://www.w3.org/2000/svg">
<path d="M4.87461 26.46C4.72461 26.41 4.58461 26.37 4.43461 26.31C3.66461 26.02 3.14461 25.29 3.11461 24.47C3.11461 24.13 3.11461 23.8 3.10461 23.46C3.10461 23.39 3.02461 23.28 2.95461 23.25C2.04461 22.87 1.56461 22.17 1.56461 21.19C1.56461 19.31 1.56461 17.44 1.56461 15.56V15.28C-0.205389 14.42 -0.485389 13.1 0.784611 11.61C-0.265389 10.67 -0.215389 9.24001 0.794611 8.34001C0.184611 7.79001 -0.105389 7.11001 0.0646107 6.29001C0.234611 5.46001 0.774611 4.96001 1.56461 4.70001C1.56461 3.86001 1.56461 3.04001 1.56461 2.21001C1.56461 0.870007 2.43461 0 3.78461 0C5.75461 0 7.72461 0 9.69461 0C10.7446 0 11.4246 0.480007 11.8046 1.46001C11.8346 1.53001 11.9046 1.61 11.9646 1.63C13.4646 2.07 14.0046 4.06 12.7146 5.19C12.6946 5.21 12.6846 5.23 12.6746 5.25C13.6746 6.14 13.7346 7.56001 12.6746 8.51001C14.0046 9.69001 13.5146 11.68 11.8946 12.18V12.48C11.8946 15.35 11.8946 18.21 11.8946 21.08C11.8946 22.13 11.4546 22.86 10.4746 23.25C10.4146 23.28 10.3546 23.4 10.3446 23.48C10.3246 23.87 10.3646 24.28 10.3146 24.67C10.1946 25.57 9.58461 26.2 8.70461 26.41C8.66461 26.41 8.62461 26.44 8.58461 26.46H4.86461H4.87461ZM10.8646 18.42H2.60461C2.60461 19.43 2.58461 20.43 2.60461 21.42C2.61461 21.93 3.07461 22.31 3.59461 22.33C3.87461 22.33 4.14461 22.33 4.42461 22.33C4.70461 22.34 4.91461 22.57 4.91461 22.83C4.91461 23.1 4.71461 23.32 4.43461 23.35C4.34461 23.35 4.25461 23.35 4.13461 23.36C4.13461 23.46 4.13461 23.54 4.13461 23.63C4.13461 23.92 4.11461 24.22 4.14461 24.51C4.19461 25.02 4.62461 25.41 5.14461 25.42C6.19461 25.42 7.24461 25.42 8.29461 25.42C8.76461 25.42 9.18461 25.11 9.25461 24.64C9.31461 24.22 9.26461 23.79 9.26461 23.36C9.20461 23.36 9.15461 23.36 9.10461 23.36C8.74461 23.35 8.52461 23.14 8.52461 22.84C8.52461 22.54 8.75461 22.33 9.11461 22.33C9.35461 22.33 9.59461 22.33 9.83461 22.33C10.3946 22.31 10.8246 21.88 10.8446 21.32C10.8446 21.12 10.8446 20.92 10.8446 20.73C10.8446 19.97 10.8446 19.2 10.8446 18.42H10.8646ZM4.65461 17.36C4.65461 17.36 4.66461 17.28 4.66461 17.24C4.66461 16.16 4.66461 15.07 4.66461 13.99C4.66461 13.59 4.76461 13.46 5.14461 13.33C7.30461 12.61 9.46461 11.89 11.6246 11.17C12.2446 10.96 12.5446 10.41 12.3646 9.84001C12.1846 9.27001 11.6046 9.00001 10.9846 9.20001C10.5646 9.33001 10.1546 9.48 9.73461 9.61C7.09461 10.49 4.45461 11.37 1.81461 12.25C1.28461 12.43 0.994611 12.86 1.05461 13.37C1.11461 13.86 1.48461 14.21 2.02461 14.28C2.44461 14.33 2.59461 14.5 2.60461 14.92C2.60461 15.04 2.60461 15.16 2.60461 15.28C2.60461 15.97 2.60461 16.65 2.60461 17.35H4.65461V17.36ZM11.3746 2.58C11.2246 2.62 11.0746 2.65001 10.9246 2.70001C9.07461 3.31001 7.22461 3.93 5.37461 4.55C4.20461 4.94 3.02461 5.33 1.85461 5.72C1.35461 5.89 1.06461 6.23001 1.04461 6.68001C1.00461 7.44001 1.71461 7.94 2.47461 7.69C4.79461 6.92 7.10461 6.15 9.41461 5.38C10.1746 5.13 10.9346 4.88001 11.6846 4.62001C12.1846 4.44001 12.4746 3.95 12.3846 3.47C12.2946 2.97 11.8746 2.62001 11.3646 2.59001L11.3746 2.58ZM2.08461 11.05C2.24461 11.01 2.40461 10.98 2.55461 10.93C4.81461 10.18 7.07461 9.43001 9.32461 8.68001C10.1246 8.41001 10.9246 8.15001 11.7146 7.88C12.1746 7.72001 12.4446 7.28001 12.4046 6.81001C12.3646 6.34001 12.0146 5.94 11.5346 5.89C11.3146 5.87 11.0746 5.92001 10.8546 5.99001C8.66461 6.71001 6.48461 7.44 4.30461 8.17C3.45461 8.45 2.60461 8.73 1.76461 9.02C1.26461 9.19 0.974611 9.68 1.06461 10.17C1.15461 10.67 1.57461 11.03 2.08461 11.05ZM2.60461 4.38L10.7646 1.66C10.5446 1.25 10.2246 1.06001 9.79461 1.06001C9.00461 1.06001 8.21461 1.06001 7.41461 1.06001C6.16461 1.06001 4.91461 1.06001 3.67461 1.06001C3.09461 1.06001 2.62461 1.45 2.60461 2C2.58461 2.78 2.60461 3.56 2.60461 4.38ZM8.81461 13.2V17.36H10.8446V12.52L8.81461 13.2ZM7.75461 13.56L5.72461 14.24V17.37H7.75461V13.56Z" fill="#0D5084"/>
<path d="M6.73467 22.3298C7.01467 22.3298 7.24467 22.5598 7.24467 22.8298C7.24467 23.1098 7.01467 23.3598 6.72467 23.3498C6.43467 23.3498 6.20467 23.0998 6.21467 22.8198C6.21467 22.5398 6.45467 22.3198 6.73467 22.3198V22.3298Z" fill="#0D5084"/>
</svg>
